<svg xmlns="http://www.w3.org/2000/svg" width="800" height="800" viewBox="0 0 179 256" fill="#0e1538"><path d="M89.2 71.6v16.1H76.6c3.1-8.3 7.5-14.2 12.6-16.1zm-14.7 61.1h14.7V117H72.4c.2 5.6.9 10.9 2.1 15.7zm-15.8 6.7c4.5 5.9 10.6 10.7 17.6 13.6-2.7-3.7-5-8.3-6.7-13.6H58.7zm13.6-29.1h16.9V94.4H74.5a87.1 87.1 0 0 0-2.2 15.9zm16.9 45.3v-16.1H76.6c3.1 8.2 7.5 14.2 12.6 16.1zM65.7 117H50.1c.4 5.6 2 10.9 4.4 15.7h13.2c-1.1-4.8-1.8-10.1-2-15.7zM76 74.4c-6.8 2.9-12.8 7.5-17.2 13.3h10.7c1.7-5.1 3.9-9.6 6.5-13.3zm-8.3 20H54.6c-2.5 4.8-4 10.2-4.5 15.9h15.6c.2-5.6.9-11 2-15.9zM177 25.6v228.6H2.1V20.8L160 1.9v23.7h17zm-29.1-10.1-84 10.1h84V15.5zm-3.7 98.1a51.7 51.7 0 1 0-51.7 51.7c28.6-.1 51.7-23.2 51.7-51.7zM40.9 192.7v20.6h103.3v-20.6H40.9zm55-37.1c5.1-1.8 9.6-7.8 12.7-16.1H95.9v16.1zm13-2.6c7-2.9 13-7.6 17.6-13.6h-10.8c-1.8 5.3-4.1 9.9-6.8 13.6zm8.5-20.3h13.2A43.7 43.7 0 0 0 135 117h-15.6c-.2 5.6-.9 10.9-2 15.7zm-4.6-15.7H95.9v15.7h14.7c1.2-4.8 1.9-10.1 2.2-15.7zm-2.2-22.6H95.9v15.9h16.9c-.3-5.6-1-11-2.2-15.9zm8.8 15.9H135c-.4-5.7-2-11.1-4.5-15.9h-13.1c1.2 4.9 1.8 10.3 2 15.9zm6.9-22.5a43.27 43.27 0 0 0-17.2-13.3c2.6 3.7 4.8 8.2 6.5 13.3h10.7zM95.9 71.6v16.1h12.7c-3.1-8.3-7.6-14.2-12.7-16.1z"/></svg>