<svg xmlns="http://www.w3.org/2000/svg" width="800" height="800" fill="none" viewBox="0 0 24 24"><circle cx="9" cy="9" r="2" stroke="#0e1538" stroke-width="1.5"/><path stroke="#0e1538" stroke-width="1.5" d="M13 15c0 1.1 0 2-4 2s-4-.9-4-2 1.8-2 4-2 4 .9 4 2Z"/><path stroke="#0e1538" stroke-width="1.5" d="M2 12c0-3.77 0-5.66 1.17-6.83S6.23 4 10 4h4c3.77 0 5.66 0 6.83 1.17S22 8.23 22 12s0 5.66-1.17 6.83S17.77 20 14 20h-4c-3.77 0-5.66 0-6.83-1.17S2 15.77 2 12Z"/><path stroke="#0e1538" stroke-linecap="round" stroke-width="1.5" d="M19 12h-4M19 9h-5M19 15h-3"/></svg>