<svg xmlns="http://www.w3.org/2000/svg" width="800" height="800" viewBox="0 0 24 24">
  <g fill="none" fill-rule="evenodd">
    <path d="M24 0v24H0V0h24ZM12.6 23.26h-.02l-.07.04h-.03l-.07-.04h-.03v.02l-.02.42v.02l.02.02.1.07h.02l.11-.07.01-.02v-.02l-.01-.42c0-.01 0-.02-.02-.02Zm.26-.11h-.02l-.18.09-.01.01v.01l.02.43v.02l.2.1.04-.01v-.02l-.03-.61c0-.02-.01-.02-.02-.02Zm-.72 0h-.02l-.01.02-.03.61.01.02h.02l.2-.09.01-.02.02-.43v-.01l-.01-.01-.19-.1Z"/>
    <path fill="#000" d="M9.62 3.38a1.48 1.48 0 0 0-1.87-.77 9 9 0 0 0-3.26 14.6A2.5 2.5 0 1 0 8 19.5v-.01a9 9 0 0 0 6 0v.01a2.5 2.5 0 1 0 3.51-2.29A9 9 0 0 0 20 11V8.5c0-.28.22-.5.5-.5h.5a1 1 0 1 0 0-2h-.5A2.5 2.5 0 0 0 18 8.5V10h-5.36L9.62 3.38ZM5.68 6.45A7 7 0 0 1 8 4.67L10.44 10H4.07a7 7 0 0 1 1.6-3.55ZM4.08 12a7 7 0 0 0 13.85 0H4.07Zm1.42 7a.5.5 0 1 0 0 1 .5.5 0 0 0 0-1Zm11 0a.5.5 0 1 0 0 1 .5.5 0 0 0 0-1Z"/>
  </g>
</svg>