<svg xmlns="http://www.w3.org/2000/svg" width="800" height="800" viewBox="0 0 24 24"><g fill="none" fill-rule="evenodd"><path d="M24 0v24H0V0h24ZM12.6 23.26h-.02l-.07.04h-.03l-.07-.04h-.03v.02l-.02.42v.02l.02.02.1.07h.02l.11-.07.01-.02v-.02l-.01-.42c0-.01 0-.02-.02-.02Zm.26-.11h-.02l-.18.09-.01.01v.01l.02.43v.02l.2.1.04-.01v-.02l-.03-.61c0-.02-.01-.02-.02-.02Zm-.72 0h-.02l-.01.02-.03.61.01.02h.02l.2-.09.01-.02.02-.43v-.01l-.01-.01-.19-.1Z"/><path fill="#0e1538" d="M20.99 12.45A9 9 0 0 1 7.89 20c.86-.29 1.8-.67 2.81-1.13 1.24-.57 2.6-1.28 4.05-2.12a49.8 49.8 0 0 0 3.86-2.44c.9-.65 1.7-1.27 2.38-1.87ZM12 3c2.23 0 4.26.8 5.83 2.15l.32-.08.17-.03.34-.06.36-.06c1.28-.16 2.7-.07 3.37 1.08.76 1.32-.06 2.78-.95 3.86l-.23.26-.22.25c-1.4 1.48-3.7 3.2-6.99 5.1-3.28 1.89-5.93 3.03-7.9 3.5l-.17.03-.33.07-.34.06c-1.35.2-2.92.13-3.65-1.13-.67-1.15-.03-2.44.75-3.46l.22-.28.12-.14.23-.26.22-.23A9 9 0 0 1 12 3ZM3.87 15.87l-.15.21c-.17.24-.35.53-.38.79V17c.14.25.64.25 1 .22l.3-.03a9 9 0 0 1-.77-1.32ZM20.66 7c-.2-.15-.54-.16-.84-.14l-.28.02-.13.02c.3.42.55.86.76 1.33l.17-.23c.18-.27.41-.66.35-.92L20.66 7Z"/></g></svg>